<mxfile host="app.diagrams.net" modified="2024-02-17T10:27:01.634Z" agent="Mozilla/5.0 (Windows NT 10.0; Win64; x64) AppleWebKit/537.36 (KHTML, like Gecko) Chrome/122.0.0.0 Safari/537.36 Edg/122.0.0.0" etag="36032hL_kz0jjfPy3157" version="23.1.5" type="device">
  <diagram name="Страница — 1" id="z8dOTzlxzyQK0QC1S7BJ">
    <mxGraphModel dx="1066" dy="705" grid="1" gridSize="10" guides="1" tooltips="1" connect="1" arrows="1" fold="1" page="1" pageScale="1" pageWidth="827" pageHeight="1169" math="0" shadow="0">
      <root>
        <mxCell id="0" />
        <mxCell id="1" parent="0" />
        <mxCell id="A9ORx0T9OLkX6T-jSz5A-3" style="edgeStyle=orthogonalEdgeStyle;rounded=0;orthogonalLoop=1;jettySize=auto;html=1;" edge="1" parent="1" source="A9ORx0T9OLkX6T-jSz5A-1" target="A9ORx0T9OLkX6T-jSz5A-2">
          <mxGeometry relative="1" as="geometry" />
        </mxCell>
        <mxCell id="A9ORx0T9OLkX6T-jSz5A-6" value="Сведения о пользователях" style="edgeLabel;html=1;align=center;verticalAlign=middle;resizable=0;points=[];" vertex="1" connectable="0" parent="A9ORx0T9OLkX6T-jSz5A-3">
          <mxGeometry x="-0.0286" y="-3" relative="1" as="geometry">
            <mxPoint as="offset" />
          </mxGeometry>
        </mxCell>
        <mxCell id="A9ORx0T9OLkX6T-jSz5A-1" value="Администратор системы" style="rounded=0;whiteSpace=wrap;html=1;" vertex="1" parent="1">
          <mxGeometry x="30" y="45" width="120" height="60" as="geometry" />
        </mxCell>
        <mxCell id="A9ORx0T9OLkX6T-jSz5A-5" style="edgeStyle=orthogonalEdgeStyle;rounded=0;orthogonalLoop=1;jettySize=auto;html=1;entryX=0;entryY=0.5;entryDx=0;entryDy=0;" edge="1" parent="1" source="A9ORx0T9OLkX6T-jSz5A-2" target="A9ORx0T9OLkX6T-jSz5A-4">
          <mxGeometry relative="1" as="geometry" />
        </mxCell>
        <mxCell id="A9ORx0T9OLkX6T-jSz5A-2" value="Создание пользователей" style="ellipse;whiteSpace=wrap;html=1;aspect=fixed;" vertex="1" parent="1">
          <mxGeometry x="330" y="30" width="90" height="90" as="geometry" />
        </mxCell>
        <mxCell id="A9ORx0T9OLkX6T-jSz5A-10" style="edgeStyle=orthogonalEdgeStyle;rounded=0;orthogonalLoop=1;jettySize=auto;html=1;" edge="1" parent="1" source="A9ORx0T9OLkX6T-jSz5A-4">
          <mxGeometry relative="1" as="geometry">
            <mxPoint x="570" y="260" as="targetPoint" />
          </mxGeometry>
        </mxCell>
        <mxCell id="A9ORx0T9OLkX6T-jSz5A-11" value="Данные клиентов" style="edgeLabel;html=1;align=center;verticalAlign=middle;resizable=0;points=[];" vertex="1" connectable="0" parent="A9ORx0T9OLkX6T-jSz5A-10">
          <mxGeometry x="-0.3089" y="-4" relative="1" as="geometry">
            <mxPoint y="-19" as="offset" />
          </mxGeometry>
        </mxCell>
        <mxCell id="A9ORx0T9OLkX6T-jSz5A-15" style="edgeStyle=orthogonalEdgeStyle;rounded=0;orthogonalLoop=1;jettySize=auto;html=1;" edge="1" parent="1" source="A9ORx0T9OLkX6T-jSz5A-4">
          <mxGeometry relative="1" as="geometry">
            <mxPoint x="380" y="260" as="targetPoint" />
            <Array as="points">
              <mxPoint x="570" y="120" />
              <mxPoint x="440" y="120" />
              <mxPoint x="440" y="170" />
              <mxPoint x="400" y="170" />
              <mxPoint x="400" y="220" />
              <mxPoint x="380" y="220" />
            </Array>
          </mxGeometry>
        </mxCell>
        <mxCell id="A9ORx0T9OLkX6T-jSz5A-16" value="Данные о поступающих машинах" style="edgeLabel;html=1;align=center;verticalAlign=middle;resizable=0;points=[];" vertex="1" connectable="0" parent="A9ORx0T9OLkX6T-jSz5A-15">
          <mxGeometry x="-0.1698" relative="1" as="geometry">
            <mxPoint x="-12" y="50" as="offset" />
          </mxGeometry>
        </mxCell>
        <mxCell id="A9ORx0T9OLkX6T-jSz5A-22" style="edgeStyle=orthogonalEdgeStyle;rounded=0;orthogonalLoop=1;jettySize=auto;html=1;entryX=0.5;entryY=0;entryDx=0;entryDy=0;" edge="1" parent="1" source="A9ORx0T9OLkX6T-jSz5A-4" target="A9ORx0T9OLkX6T-jSz5A-21">
          <mxGeometry relative="1" as="geometry">
            <Array as="points">
              <mxPoint x="570" y="130" />
              <mxPoint x="220" y="130" />
            </Array>
          </mxGeometry>
        </mxCell>
        <mxCell id="A9ORx0T9OLkX6T-jSz5A-23" value="Интерес от клиента" style="edgeLabel;html=1;align=center;verticalAlign=middle;resizable=0;points=[];" vertex="1" connectable="0" parent="A9ORx0T9OLkX6T-jSz5A-22">
          <mxGeometry x="0.7347" y="-2" relative="1" as="geometry">
            <mxPoint as="offset" />
          </mxGeometry>
        </mxCell>
        <mxCell id="A9ORx0T9OLkX6T-jSz5A-4" value="Администраторы автосалона" style="rounded=0;whiteSpace=wrap;html=1;" vertex="1" parent="1">
          <mxGeometry x="510" y="45" width="120" height="60" as="geometry" />
        </mxCell>
        <mxCell id="A9ORx0T9OLkX6T-jSz5A-8" value="" style="shape=link;html=1;rounded=0;width=65;" edge="1" parent="1">
          <mxGeometry width="100" relative="1" as="geometry">
            <mxPoint x="520" y="410" as="sourcePoint" />
            <mxPoint x="620" y="410" as="targetPoint" />
          </mxGeometry>
        </mxCell>
        <mxCell id="A9ORx0T9OLkX6T-jSz5A-9" value="Сведения &lt;br&gt;о клиентах" style="edgeLabel;html=1;align=center;verticalAlign=middle;resizable=0;points=[];" vertex="1" connectable="0" parent="A9ORx0T9OLkX6T-jSz5A-8">
          <mxGeometry x="0.02" y="5" relative="1" as="geometry">
            <mxPoint x="-1" y="5" as="offset" />
          </mxGeometry>
        </mxCell>
        <mxCell id="A9ORx0T9OLkX6T-jSz5A-12" value="" style="shape=link;html=1;rounded=0;width=65;" edge="1" parent="1">
          <mxGeometry width="100" relative="1" as="geometry">
            <mxPoint x="330" y="410" as="sourcePoint" />
            <mxPoint x="430" y="410" as="targetPoint" />
          </mxGeometry>
        </mxCell>
        <mxCell id="A9ORx0T9OLkX6T-jSz5A-13" value="Сведения &lt;br&gt;о машинах" style="edgeLabel;html=1;align=center;verticalAlign=middle;resizable=0;points=[];" vertex="1" connectable="0" parent="A9ORx0T9OLkX6T-jSz5A-12">
          <mxGeometry x="0.02" y="5" relative="1" as="geometry">
            <mxPoint x="-1" y="5" as="offset" />
          </mxGeometry>
        </mxCell>
        <mxCell id="A9ORx0T9OLkX6T-jSz5A-18" style="edgeStyle=orthogonalEdgeStyle;rounded=0;orthogonalLoop=1;jettySize=auto;html=1;" edge="1" parent="1" source="A9ORx0T9OLkX6T-jSz5A-17">
          <mxGeometry relative="1" as="geometry">
            <mxPoint x="380" y="380" as="targetPoint" />
          </mxGeometry>
        </mxCell>
        <mxCell id="A9ORx0T9OLkX6T-jSz5A-17" value="Ввод сведений о машинах салона" style="ellipse;whiteSpace=wrap;html=1;aspect=fixed;" vertex="1" parent="1">
          <mxGeometry x="340" y="260" width="80" height="80" as="geometry" />
        </mxCell>
        <mxCell id="A9ORx0T9OLkX6T-jSz5A-20" style="edgeStyle=orthogonalEdgeStyle;rounded=0;orthogonalLoop=1;jettySize=auto;html=1;" edge="1" parent="1" source="A9ORx0T9OLkX6T-jSz5A-19">
          <mxGeometry relative="1" as="geometry">
            <mxPoint x="570" y="380" as="targetPoint" />
          </mxGeometry>
        </mxCell>
        <mxCell id="A9ORx0T9OLkX6T-jSz5A-19" value="Ввод сведений о клиентах" style="ellipse;whiteSpace=wrap;html=1;aspect=fixed;" vertex="1" parent="1">
          <mxGeometry x="530" y="260" width="80" height="80" as="geometry" />
        </mxCell>
        <mxCell id="A9ORx0T9OLkX6T-jSz5A-26" style="edgeStyle=orthogonalEdgeStyle;rounded=0;orthogonalLoop=1;jettySize=auto;html=1;" edge="1" parent="1" source="A9ORx0T9OLkX6T-jSz5A-21">
          <mxGeometry relative="1" as="geometry">
            <mxPoint x="220" y="380" as="targetPoint" />
          </mxGeometry>
        </mxCell>
        <mxCell id="A9ORx0T9OLkX6T-jSz5A-21" value="Формирование заявки на просмотр" style="ellipse;whiteSpace=wrap;html=1;aspect=fixed;" vertex="1" parent="1">
          <mxGeometry x="170" y="260" width="100" height="100" as="geometry" />
        </mxCell>
        <mxCell id="A9ORx0T9OLkX6T-jSz5A-24" value="" style="shape=link;html=1;rounded=0;width=65;" edge="1" parent="1">
          <mxGeometry width="100" relative="1" as="geometry">
            <mxPoint x="170" y="410" as="sourcePoint" />
            <mxPoint x="270" y="410" as="targetPoint" />
          </mxGeometry>
        </mxCell>
        <mxCell id="A9ORx0T9OLkX6T-jSz5A-25" value="Заявки на просмотр" style="edgeLabel;html=1;align=center;verticalAlign=middle;resizable=0;points=[];" vertex="1" connectable="0" parent="A9ORx0T9OLkX6T-jSz5A-24">
          <mxGeometry x="0.02" y="5" relative="1" as="geometry">
            <mxPoint x="-1" y="5" as="offset" />
          </mxGeometry>
        </mxCell>
        <mxCell id="A9ORx0T9OLkX6T-jSz5A-30" style="edgeStyle=orthogonalEdgeStyle;rounded=0;orthogonalLoop=1;jettySize=auto;html=1;" edge="1" parent="1" source="A9ORx0T9OLkX6T-jSz5A-27">
          <mxGeometry relative="1" as="geometry">
            <mxPoint x="170" y="410" as="targetPoint" />
            <Array as="points">
              <mxPoint x="101" y="545" />
            </Array>
          </mxGeometry>
        </mxCell>
        <mxCell id="A9ORx0T9OLkX6T-jSz5A-27" value="Изменение статуса заявки" style="ellipse;whiteSpace=wrap;html=1;aspect=fixed;" vertex="1" parent="1">
          <mxGeometry x="180" y="505" width="80" height="80" as="geometry" />
        </mxCell>
        <mxCell id="A9ORx0T9OLkX6T-jSz5A-28" value="" style="endArrow=classic;html=1;rounded=0;entryX=0.5;entryY=0;entryDx=0;entryDy=0;" edge="1" parent="1" target="A9ORx0T9OLkX6T-jSz5A-27">
          <mxGeometry width="50" height="50" relative="1" as="geometry">
            <mxPoint x="220" y="440" as="sourcePoint" />
            <mxPoint x="440" y="340" as="targetPoint" />
          </mxGeometry>
        </mxCell>
        <mxCell id="A9ORx0T9OLkX6T-jSz5A-29" value="Показ автомобиля" style="edgeLabel;html=1;align=center;verticalAlign=middle;resizable=0;points=[];" vertex="1" connectable="0" parent="A9ORx0T9OLkX6T-jSz5A-28">
          <mxGeometry x="-0.1385" y="-1" relative="1" as="geometry">
            <mxPoint as="offset" />
          </mxGeometry>
        </mxCell>
      </root>
    </mxGraphModel>
  </diagram>
</mxfile>
